HIERARCHY
ROOT reference
{
  OFFSET 0 0 0
  CHANNELS 6 Xposition Yposition Zposition Zrotation Xrotation Yrotation
  JOINT Hips
  {
    OFFSET -3.25873 61.6975 92.532
    CHANNELS 6 Xposition Yposition Zposition Zrotation Xrotation Yrotation
    JOINT Spine
    {
      OFFSET 0 7.76127 0
      CHANNELS 6 Xposition Yposition Zposition Zrotation Xrotation Yrotation
      JOINT Spine1
      {
        OFFSET 0 24.7858 0
        CHANNELS 6 Xposition Yposition Zposition Zrotation Xrotation Yrotation
        JOINT Neck
        {
          OFFSET 0 24.684 2.244
          CHANNELS 6 Xposition Yposition Zposition Zrotation Xrotation Yrotation
          JOINT Head
          {
            OFFSET 0 13.2509 -1.89299
            CHANNELS 6 Xposition Yposition Zposition Zrotation Xrotation Yrotation
            End Site
            {
              OFFSET 0 23.6624 0
            }
          }
        }
        JOINT LeftShoulder
        {
          OFFSET 3.79413 23.4442 -0.177979
          CHANNELS 6 Xposition Yposition Zposition Zrotation Xrotation Yrotation
          JOINT LeftArm
          {
            OFFSET 9.21107 0 0
            CHANNELS 6 Xposition Yposition Zposition Zrotation Xrotation Yrotation
            JOINT LeftForeArm
            {
              OFFSET 34.3528 0 0
              CHANNELS 6 Xposition Yposition Zposition Zrotation Xrotation Yrotation
              JOINT LeftHand
              {
                OFFSET 25.4606 0 0
                CHANNELS 6 Xposition Yposition Zposition Zrotation Xrotation Yrotation
                End Site
                {
                  OFFSET 14.1974 0 0
                }
              }
            }
          }
        }
        JOINT RightShoulder
        {
          OFFSET -3.76739 23.4442 -0.177979
          CHANNELS 6 Xposition Yposition Zposition Zrotation Xrotation Yrotation
          JOINT RightArm
          {
            OFFSET -9.21107 0 0
            CHANNELS 6 Xposition Yposition Zposition Zrotation Xrotation Yrotation
            JOINT RightForeArm
            {
              OFFSET -34.3528 0 0
              CHANNELS 6 Xposition Yposition Zposition Zrotation Xrotation Yrotation
              JOINT RightHand
              {
                OFFSET -25.4606 0 0
                CHANNELS 6 Xposition Yposition Zposition Zrotation Xrotation Yrotation
                End Site
                {
                  OFFSET -14.1974 0 0
                }
              }
            }
          }
        }
      }
    }
    JOINT LeftUpLeg
    {
      OFFSET 9.46496 0 0
      CHANNELS 6 Xposition Yposition Zposition Zrotation Xrotation Yrotation
      JOINT LeftLeg
      {
        OFFSET 0 -36.0737 0
        CHANNELS 6 Xposition Yposition Zposition Zrotation Xrotation Yrotation
        JOINT LeftFoot
        {
          OFFSET 0 -40.8088 0
          CHANNELS 6 Xposition Yposition Zposition Zrotation Xrotation Yrotation
          JOINT LeftToeBase
          {
            OFFSET 0 -6.15222 14.1974
            CHANNELS 6 Xposition Yposition Zposition Zrotation Xrotation Yrotation
            End Site
            {
              OFFSET 0 0 3.78598
            }
          }
        }
      }
    }
    JOINT RightUpLeg
    {
      OFFSET -9.46496 0 0
      CHANNELS 6 Xposition Yposition Zposition Zrotation Xrotation Yrotation
      JOINT RightLeg
      {
        OFFSET 0 -36.0737 0
        CHANNELS 6 Xposition Yposition Zposition Zrotation Xrotation Yrotation
        JOINT RightFoot
        {
          OFFSET 0 -40.8088 0
          CHANNELS 6 Xposition Yposition Zposition Zrotation Xrotation Yrotation
          JOINT RightToeBase
          {
            OFFSET 0 -6.15222 14.1974
            CHANNELS 6 Xposition Yposition Zposition Zrotation Xrotation Yrotation
            End Site
            {
              OFFSET 0 0 3.78598
            }
          }
        }
      }
    }
  }
}
MOTION
Frames:	4
Frame Time:	0.004
0 0 0 0 0 -0 -24.5541 78.4551 -205.377 0.699534 0.39209 12.7578 0 7.76127 2.84217e-014 1.05853 -3.5985 -0.0841855 0 24.7858 0 -2.23788 -3.82761 -0.202293 0 24.684 2.244 -0.435126 15.3489 -4.20979 3.55271e-015 13.2509 -1.89299 2.19171 5.39215 -4.16842 3.79413 23.4442 -0.177979 11.7802 1.39939 -7.36784 9.21107 0 0 -12.0614 1.69493 -3.56872 34.3528 0 0 2.75248 3.71798 -2.98065 25.4606 2.84217e-014 0 -4.32186 3.8093 -0.526776 -3.76739 23.4442 -0.177979 -13.1535 0.189832 -1.28377 -9.21107 -2.84217e-014 2.84217e-014 15.3918 -1.32049 -2.7457 -34.3528 2.84217e-014 2.84217e-014 0.131689 0.491023 -1.61427 -25.4606 -2.84217e-014 0 -2.59 0.377908 5.08665 9.46496 0 0 -3.49715 4.82074 1.06275 -7.10543e-015 -36.0737 0 1.08775 -1.08119 -7.03985 -3.55271e-015 -40.8088 0 3.2935 -3.90537 11.2325 7.10543e-015 -6.15222 14.1974 2.03444e-016 -1.86361e-017 -0 -9.46496 1.42109e-014 0 0.107618 12.1165 -3.95336 0 -36.0737 0 1.25858 -12.1021 0.865251 0 -40.8088 0 -2.73803 -1.38085 -26.8697 -1.42109e-014 -6.15222 14.1974 2.48481e-016 1.98785e-016 -0 
0 0 0 0 0 -0 -24.533 78.4551 -205.377 0.678853 0.392122 12.7373 3.55271e-015 7.76127 0 1.13945 -3.5985 -0.0841855 -7.10543e-015 24.7858 0 -2.42403 -3.83842 -0.202296 -7.10543e-015 24.684 2.244 -0.184879 15.3405 -4.2348 3.55271e-015 13.2509 -1.89299 2.06235 5.41179 -4.20938 3.79413 23.4442 -0.177979 11.9992 1.50319 -7.33922 9.21107 2.84217e-014 -2.84217e-014 -12.1424 1.61556 -3.61112 34.3528 2.84217e-014 0 2.83878 3.66226 -3.01847 25.4606 0 2.84217e-014 -5.34306 3.75772 -0.446619 -3.76739 23.4442 -0.177979 -12.9663 0.133743 -1.28316 -9.21107 -5.68434e-014 0 15.341 -1.28842 -2.76742 -34.3528 -2.84217e-014 0 0.120555 0.453598 -1.63616 -25.4606 -2.84217e-014 0 -2.5121 0.342226 5.15749 9.46496 -1.42109e-014 0 -3.48781 4.85349 1.10825 7.10543e-015 -36.0737 0 1.07068 -1.1062 -7.02448 -3.55271e-015 -40.8088 2.84217e-014 3.26787 -3.90471 11.2131 -7.10543e-015 -6.15222 14.1974 2.01891e-016 -1.2424e-017 -0 -9.46496 0 2.84217e-014 0.111168 12.1122 -3.94937 3.55271e-015 -36.0737 -2.84217e-014 1.25139 -12.0835 0.849057 0 -40.8088 0 -2.69814 -1.39554 -26.8206 0 -6.15222 14.1974 9.93923e-017 -1.98785e-016 -3.18055e-015 
0 0 0 0 0 -0 -24.5061 78.4551 -205.377 0.679736 0.402516 12.7329 -3.55271e-015 7.76127 2.84217e-014 1.14539 -3.6016 -0.0841858 -3.55271e-015 24.7858 2.84217e-014 -2.43061 -3.85679 -0.2023 -3.55271e-015 24.684 2.244 -0.148843 15.4085 -4.25815 0 13.2509 -1.89299 1.9607 5.30066 -4.24194 3.79413 23.4442 -0.177979 11.9992 1.50283 -7.34089 9.21107 2.84217e-014 0 -12.1451 1.55103 -3.60018 34.3528 2.84217e-014 -2.84217e-014 2.75697 3.76108 -2.98456 25.4606 2.84217e-014 0 -5.17313 3.8527 -0.442423 -3.76739 23.4442 -0.177979 -12.9624 0.145032 -1.29856 -9.21107 -5.68434e-014 0 15.3529 -1.28274 -2.7688 -34.3528 0 0 0.161911 0.540579 -1.60752 -25.4606 -5.68434e-014 -2.84217e-014 -2.52328 0.431396 5.05549 9.46496 0 0 -3.50572 4.8528 1.0933 0 -36.0737 0 1.06715 -1.12146 -7.03605 3.55271e-015 -40.8088 -2.84217e-014 3.30505 -3.88861 11.2279 7.10543e-015 -6.15222 14.1974 2.20527e-016 -1.18028e-016 -3.18055e-015 -9.46496 0 2.84217e-014 0.071708 12.0927 -3.97827 -3.55271e-015 -36.0737 0 1.28066 -12.0563 0.91784 0 -40.8088 0 -2.65187 -1.4028 -26.8626 0 -6.15222 14.1974 0 0 -6.36111e-015 
0 0 0 0 0 -0 -24.4808 78.4551 -205.377 0.660327 0.417321 12.7283 0 7.76127 -2.84217e-014 1.17248 -3.61035 -0.0841866 0 24.7858 0 -2.43767 -3.87527 -0.205454 3.55271e-015 24.684 2.244 -0.167186 15.3893 -4.26786 3.55271e-015 13.2509 -1.89299 1.96045 5.35034 -4.25276 3.79413 23.4442 -0.177979 11.9888 1.53286 -7.34763 9.21107 0 0 -12.139 1.59594 -3.58646 34.3528 0 -2.84217e-014 2.73822 3.79383 -2.95165 25.4606 0 0 -5.08305 3.88355 -0.435756 -3.76739 23.4442 -0.177979 -12.966 0.156207 -1.32191 -9.21107 0 2.84217e-014 15.3724 -1.27914 -2.76951 -34.3528 -2.84217e-014 -2.84217e-014 0.198198 0.530584 -1.62489 -25.4606 0 0 -2.88308 0.401022 5.25999 9.46496 0 -2.84217e-014 -3.51392 4.85585 1.09616 -3.55271e-015 -36.0737 2.84217e-014 1.07964 -1.16399 -7.04031 -3.55271e-015 -40.8088 0 3.30735 -3.8534 11.2253 0 -6.15222 14.1974 -2.23633e-016 4.96962e-017 -0 -9.46496 -1.42109e-014 -2.84217e-014 0.057071 12.0675 -3.96155 0 -36.0737 2.84217e-014 1.29333 -12.0441 0.893103 -7.10543e-015 -40.8088 2.84217e-014 -2.61791 -1.40489 -26.8507 0 -6.15222 14.1974 4.96962e-017 0 -6.36111e-015 
